<svg width="32" height="29" viewBox="0 0 32 29" fill="none" xmlns="http://www.w3.org/2000/svg">
<g filter="url(#filter0_d_32_1206)">
<g clip-path="url(#clip0_32_1206)">
<rect x="8" y="6.46667" width="16" height="12" fill="#E1E7FE"/>
<g clip-path="url(#clip1_32_1206)" filter="url(#filter1_d_32_1206)">
<mask id="mask0_32_1206" style="mask-type:alpha" maskUnits="userSpaceOnUse" x="6" y="5" width="20" height="15">
<path d="M23.5555 5.46667H8.4444C7.46256 5.46667 6.66663 6.30241 6.66663 7.33334V17.6C6.66663 18.6309 7.46256 19.4667 8.4444 19.4667H23.5555C24.5374 19.4667 25.3333 18.6309 25.3333 17.6V7.33334C25.3333 6.30241 24.5374 5.46667 23.5555 5.46667Z" fill="white"/>
</mask>
<g mask="url(#mask0_32_1206)">
<path d="M23.5555 5.46667H8.4444C7.46256 5.46667 6.66663 6.30241 6.66663 7.33334V17.6C6.66663 18.6309 7.46256 19.4667 8.4444 19.4667H23.5555C24.5374 19.4667 25.3333 18.6309 25.3333 17.6V7.33334C25.3333 6.30241 24.5374 5.46667 23.5555 5.46667Z" fill="#22438B"/>
<path fill-rule="evenodd" clip-rule="evenodd" d="M9.33324 6.39999L7.53235 6.42426L7.55546 8.26666L22.6506 18.5595L24.4612 18.5249L24.4275 16.6937L9.33324 6.39999Z" fill="white"/>
<path fill-rule="evenodd" clip-rule="evenodd" d="M8.44443 6.39999L7.55554 7.33333L23.5555 18.5333L24.4444 17.6L8.44443 6.39999Z" fill="#C7152A"/>
<path fill-rule="evenodd" clip-rule="evenodd" d="M22.6667 6.39999H24.4444V8.26666C24.4444 8.26666 14 15.1696 9.34932 18.5595C9.29332 18.6005 7.57332 18.5623 7.57332 18.5623L7.43555 16.788L22.6667 6.39999Z" fill="white"/>
<path fill-rule="evenodd" clip-rule="evenodd" d="M23.5938 6.37387L24.4444 7.33334L8.44443 18.5333L7.55554 17.6L23.5938 6.37387Z" fill="#C7152A"/>
<path fill-rule="evenodd" clip-rule="evenodd" d="M13.7778 6.39999H18.2222V10.1333H24.4444V14.8H18.2222V18.5333H13.7778V14.8H7.55554V10.1333H13.7778V6.39999Z" fill="white"/>
<path fill-rule="evenodd" clip-rule="evenodd" d="M14.6667 6.39999H17.3333V11.0667H24.4444V13.8667H17.3333V18.5333H14.6667V13.8667H7.55554V11.0667H14.6667V6.39999Z" fill="#C7152A"/>
<path d="M23.5555 5.93335H8.44442C7.70804 5.93335 7.11108 6.56015 7.11108 7.33335V17.6C7.11108 18.3732 7.70804 19 8.44442 19H23.5555C24.2919 19 24.8889 18.3732 24.8889 17.6V7.33335C24.8889 6.56015 24.2919 5.93335 23.5555 5.93335Z" stroke="black" stroke-opacity="0.1"/>
</g>
</g>
</g>
</g>
<defs>
<filter id="filter0_d_32_1206" x="0" y="0.466675" width="32" height="28" filterUnits="userSpaceOnUse" color-interpolation-filters="sRGB">
<feFlood flood-opacity="0" result="BackgroundImageFix"/>
<feColorMatrix in="SourceAlpha" type="matrix" values="0 0 0 0 0 0 0 0 0 0 0 0 0 0 0 0 0 0 127 0" result="hardAlpha"/>
<feOffset dy="2"/>
<feGaussianBlur stdDeviation="4"/>
<feColorMatrix type="matrix" values="0 0 0 0 0 0 0 0 0 0 0 0 0 0 0 0 0 0 0.06 0"/>
<feBlend mode="normal" in2="BackgroundImageFix" result="effect1_dropShadow_32_1206"/>
<feBlend mode="normal" in="SourceGraphic" in2="effect1_dropShadow_32_1206" result="shape"/>
</filter>
<filter id="filter1_d_32_1206" x="2.66663" y="5.46667" width="26.6666" height="22" filterUnits="userSpaceOnUse" color-interpolation-filters="sRGB">
<feFlood flood-opacity="0" result="BackgroundImageFix"/>
<feColorMatrix in="SourceAlpha" type="matrix" values="0 0 0 0 0 0 0 0 0 0 0 0 0 0 0 0 0 0 127 0" result="hardAlpha"/>
<feOffset dy="4"/>
<feGaussianBlur stdDeviation="2"/>
<feComposite in2="hardAlpha" operator="out"/>
<feColorMatrix type="matrix" values="0 0 0 0 0 0 0 0 0 0 0 0 0 0 0 0 0 0 0.25 0"/>
<feBlend mode="normal" in2="BackgroundImageFix" result="effect1_dropShadow_32_1206"/>
<feBlend mode="normal" in="SourceGraphic" in2="effect1_dropShadow_32_1206" result="shape"/>
</filter>
<clipPath id="clip0_32_1206">
<rect x="8" y="6.46667" width="16" height="12" rx="2" fill="white"/>
</clipPath>
<clipPath id="clip1_32_1206">
<rect width="18.6667" height="14" fill="white" transform="translate(6.66663 5.46667)"/>
</clipPath>
</defs>
</svg>
