<svg width="16" height="17" viewBox="0 0 16 17" fill="none" xmlns="http://www.w3.org/2000/svg">
<rect y="0.966675" width="16" height="16" rx="8" fill="white"/>
<path d="M8 1C3.58267 1 0 4.44302 0 8.6896C0 12.0871 2.292 14.9694 5.47133 15.9864C5.87067 16.0575 6 15.8191 6 15.6167V14.1851C3.77467 14.6503 3.31133 13.2777 3.31133 13.2777C2.94733 12.3889 2.42267 12.1525 2.42267 12.1525C1.69667 11.6751 2.478 11.6853 2.478 11.6853C3.28133 11.7392 3.704 12.478 3.704 12.478C4.41733 13.6532 5.57533 13.3136 6.032 13.1169C6.10333 12.6203 6.31067 12.2806 6.54 12.089C4.76333 11.8936 2.89533 11.2342 2.89533 8.28846C2.89533 7.44837 3.208 6.76272 3.71933 6.22444C3.63667 6.03028 3.36267 5.24786 3.79733 4.18926C3.79733 4.18926 4.46933 3.98292 5.998 4.97745C6.636 4.80699 7.32 4.72177 8 4.71856C8.68 4.72177 9.36467 4.80699 10.004 4.97745C11.5313 3.98292 12.202 4.18926 12.202 4.18926C12.6373 5.24851 12.3633 6.03092 12.2807 6.22444C12.794 6.76272 13.104 7.44901 13.104 8.28846C13.104 11.2419 11.2327 11.8923 9.45133 12.0826C9.738 12.321 10 12.7888 10 13.5065V15.6167C10 15.8211 10.128 16.0614 10.534 15.9858C13.7107 14.9675 16 12.0858 16 8.6896C16 4.44302 12.418 1 8 1Z" fill="#24292E"/>
</svg>
