<svg width="10" height="11" viewBox="0 0 10 11" fill="none" xmlns="http://www.w3.org/2000/svg">
<path d="M4.91667 8.96822C4.39039 8.51932 3.90258 8.02719 3.45833 7.49697C2.79167 6.70072 2 5.51489 2 4.38489C1.99941 3.2047 2.7101 2.14047 3.80045 1.6888C4.89079 1.23714 6.14586 1.48707 6.98 2.32197C7.52853 2.86806 7.8358 3.61088 7.83335 4.38489C7.83335 5.51489 7.04167 6.70072 6.375 7.49697C5.93076 8.02719 5.44295 8.51932 4.91667 8.96822ZM4.91667 3.13489C4.47009 3.13489 4.05743 3.37314 3.83414 3.75989C3.61084 4.14664 3.61084 4.62314 3.83414 5.00989C4.05743 5.39664 4.47009 5.63489 4.91667 5.63489C5.60702 5.63489 6.16667 5.07524 6.16667 4.38489C6.16667 3.69453 5.60702 3.13489 4.91667 3.13489Z" fill="#79819A"/>
</svg>
