<svg width="10" height="11" viewBox="0 0 10 11" fill="none" xmlns="http://www.w3.org/2000/svg">
<path d="M8.24895 9.13333C4.69411 9.13838 1.9962 6.40813 2 2.88439C2 2.65427 2.18655 2.46667 2.41667 2.46667H3.5164C3.72289 2.46667 3.8983 2.6184 3.92863 2.82265C4.0013 3.31217 4.14382 3.78874 4.35187 4.2378L4.39469 4.33022C4.45422 4.45872 4.41387 4.6114 4.29862 4.6937C3.95804 4.93692 3.82788 5.42649 4.09321 5.80849C4.42616 6.28786 4.84585 6.70747 5.32511 7.04027C5.70709 7.30551 6.19658 7.17537 6.43979 6.83486C6.52215 6.71955 6.67492 6.67917 6.8035 6.73874L6.89549 6.78135C7.34458 6.98938 7.82119 7.13191 8.31076 7.20457C8.51502 7.23489 8.66667 7.41029 8.66667 7.61678V8.71667C8.66667 8.94679 8.47966 9.13333 8.24955 9.13333L8.24895 9.13333Z" fill="#79819A"/>
</svg>
