<svg width="146" height="38" viewBox="0 0 146 38" fill="none" xmlns="http://www.w3.org/2000/svg">
<g filter="url(#filter0_dd_5642_412477)">
<rect x="3.1" y="2.1" width="31.8" height="31.8" rx="7.9" fill="white"/>
<rect x="3.1" y="2.1" width="31.8" height="31.8" rx="7.9" fill="url(#paint0_linear_5642_412477)"/>
<path d="M14 21L17 18L14 15M20 21H24M14.8 27H23.2C24.8802 27 25.7202 27 26.362 26.673C26.9265 26.3854 27.3854 25.9265 27.673 25.362C28 24.7202 28 23.8802 28 22.2V13.8C28 12.1198 28 11.2798 27.673 10.638C27.3854 10.0735 26.9265 9.6146 26.362 9.32698C25.7202 9 24.8802 9 23.2 9H14.8C13.1198 9 12.2798 9 11.638 9.32698C11.0735 9.6146 10.6146 10.0735 10.327 10.638C10 11.2798 10 12.1198 10 13.8V22.2C10 23.8802 10 24.7202 10.327 25.362C10.6146 25.9265 11.0735 26.3854 11.638 26.673C12.2798 27 13.1198 27 14.8 27Z" stroke="#53389E" stroke-width="2.5" stroke-linecap="round" stroke-linejoin="round"/>
<rect x="3.1" y="2.1" width="31.8" height="31.8" rx="7.9" stroke="#D0D5DD" stroke-width="0.2"/>
</g>
<path d="M45.4347 25V10.4545H50.8892C52.0066 10.4545 52.9441 10.6629 53.7017 11.0795C54.464 11.4962 55.0393 12.0691 55.4276 12.7983C55.8205 13.5227 56.017 14.3466 56.017 15.2699C56.017 16.2027 55.8205 17.0312 55.4276 17.7557C55.0346 18.4801 54.4545 19.0507 53.6875 19.4673C52.9205 19.8793 51.9759 20.0852 50.8537 20.0852H47.2386V17.919H50.4986C51.152 17.919 51.687 17.8054 52.1037 17.5781C52.5204 17.3509 52.8281 17.0384 53.027 16.6406C53.2306 16.2429 53.3324 15.786 53.3324 15.2699C53.3324 14.7538 53.2306 14.2992 53.027 13.9062C52.8281 13.5133 52.518 13.2079 52.0966 12.9901C51.6799 12.7675 51.1425 12.6562 50.4844 12.6562H48.0696V25H45.4347ZM58.1921 25V14.0909H60.685V15.9091H60.7987C60.9975 15.2794 61.3384 14.794 61.8214 14.4531C62.3091 14.1075 62.8654 13.9347 63.4904 13.9347C63.6325 13.9347 63.7911 13.9418 63.9663 13.956C64.1462 13.9654 64.2953 13.982 64.4137 14.0057V16.3707C64.3048 16.3329 64.132 16.2997 63.8952 16.2713C63.6632 16.2382 63.4383 16.2216 63.2205 16.2216C62.7518 16.2216 62.3304 16.3234 61.9563 16.527C61.587 16.7259 61.2958 17.0028 61.0827 17.358C60.8697 17.7131 60.7631 18.1226 60.7631 18.5866V25H58.1921ZM70.4311 25.2131C69.3658 25.2131 68.4425 24.9787 67.6612 24.5099C66.88 24.0412 66.2739 23.3854 65.843 22.5426C65.4169 21.6998 65.2038 20.715 65.2038 19.5881C65.2038 18.4612 65.4169 17.474 65.843 16.6264C66.2739 15.7789 66.88 15.1207 67.6612 14.652C68.4425 14.1832 69.3658 13.9489 70.4311 13.9489C71.4964 13.9489 72.4197 14.1832 73.201 14.652C73.9822 15.1207 74.5859 15.7789 75.0121 16.6264C75.4429 17.474 75.6584 18.4612 75.6584 19.5881C75.6584 20.715 75.4429 21.6998 75.0121 22.5426C74.5859 23.3854 73.9822 24.0412 73.201 24.5099C72.4197 24.9787 71.4964 25.2131 70.4311 25.2131ZM70.4453 23.1534C71.023 23.1534 71.5059 22.9948 71.8942 22.6776C72.2824 22.3556 72.5713 21.9247 72.7607 21.3849C72.9548 20.8452 73.0518 20.2438 73.0518 19.581C73.0518 18.9134 72.9548 18.3097 72.7607 17.7699C72.5713 17.2254 72.2824 16.7921 71.8942 16.4702C71.5059 16.1482 71.023 15.9872 70.4453 15.9872C69.8535 15.9872 69.361 16.1482 68.968 16.4702C68.5798 16.7921 68.2886 17.2254 68.0945 17.7699C67.9051 18.3097 67.8104 18.9134 67.8104 19.581C67.8104 20.2438 67.9051 20.8452 68.0945 21.3849C68.2886 21.9247 68.5798 22.3556 68.968 22.6776C69.361 22.9948 69.8535 23.1534 70.4453 23.1534ZM82.5849 29.3182C81.6616 29.3182 80.8685 29.1927 80.2056 28.9418C79.5427 28.6955 79.0101 28.3641 78.6076 27.9474C78.2051 27.5308 77.9258 27.0691 77.7695 26.5625L80.0849 26.0014C80.189 26.2145 80.3406 26.4252 80.5394 26.6335C80.7383 26.8466 81.0058 27.0218 81.342 27.1591C81.6829 27.3011 82.1114 27.3722 82.6275 27.3722C83.3567 27.3722 83.9603 27.1946 84.4386 26.8395C84.9168 26.4891 85.1559 25.9115 85.1559 25.1065V23.0398H85.0281C84.8955 23.3049 84.7013 23.5772 84.4457 23.8565C84.1947 24.1359 83.8609 24.3703 83.4442 24.5597C83.0323 24.7491 82.5138 24.8438 81.8888 24.8438C81.0508 24.8438 80.2908 24.6473 79.609 24.2543C78.9319 23.8565 78.3922 23.2647 77.9897 22.4787C77.592 21.688 77.3931 20.6984 77.3931 19.5099C77.3931 18.312 77.592 17.3011 77.9897 16.4773C78.3922 15.6487 78.9343 15.0213 79.6161 14.5952C80.2979 14.1643 81.0579 13.9489 81.896 13.9489C82.5352 13.9489 83.0607 14.0578 83.4727 14.2756C83.8893 14.4886 84.2208 14.7467 84.467 15.0497C84.7132 15.348 84.9002 15.6297 85.0281 15.8949H85.1701V14.0909H87.7056V25.1776C87.7056 26.1103 87.4831 26.8821 87.038 27.4929C86.5929 28.1037 85.9845 28.5606 85.2127 28.8636C84.4409 29.1667 83.565 29.3182 82.5849 29.3182ZM82.6062 22.8267C83.1507 22.8267 83.6147 22.6941 83.9982 22.429C84.3817 22.1638 84.6729 21.7827 84.8718 21.2855C85.0707 20.7884 85.1701 20.1918 85.1701 19.4957C85.1701 18.8092 85.0707 18.2079 84.8718 17.6918C84.6777 17.1757 84.3888 16.7756 84.0053 16.4915C83.6265 16.2027 83.1602 16.0582 82.6062 16.0582C82.0333 16.0582 81.555 16.2074 81.1715 16.5057C80.788 16.804 80.4992 17.2135 80.305 17.7344C80.1109 18.2505 80.0138 18.8376 80.0138 19.4957C80.0138 20.1634 80.1109 20.7481 80.305 21.25C80.5039 21.7472 80.7951 22.1354 81.1786 22.4148C81.5669 22.6894 82.0427 22.8267 82.6062 22.8267ZM98.359 14.4531C98.2927 13.8329 98.0134 13.3499 97.521 13.0043C97.0333 12.6586 96.3988 12.4858 95.6175 12.4858C95.0683 12.4858 94.5972 12.5687 94.2042 12.7344C93.8112 12.9001 93.5105 13.125 93.3022 13.4091C93.0939 13.6932 92.9873 14.0175 92.9826 14.3821C92.9826 14.6851 93.0513 14.9479 93.1886 15.1705C93.3306 15.393 93.5224 15.5824 93.7638 15.7386C94.0053 15.8902 94.2728 16.018 94.5664 16.1222C94.86 16.2263 95.1559 16.3139 95.4542 16.3849L96.8178 16.7259C97.3671 16.8537 97.895 17.0265 98.4016 17.2443C98.913 17.4621 99.3699 17.7367 99.7724 18.0682C100.18 18.3996 100.502 18.7997 100.738 19.2685C100.975 19.7372 101.093 20.2865 101.093 20.9162C101.093 21.7685 100.876 22.5189 100.44 23.1676C100.004 23.8116 99.3746 24.3158 98.5508 24.6804C97.7317 25.0402 96.7397 25.2202 95.5749 25.2202C94.4433 25.2202 93.4608 25.045 92.6275 24.6946C91.7989 24.3442 91.1502 23.8329 90.6815 23.1605C90.2174 22.4882 89.9665 21.669 89.9286 20.7031H92.521C92.5588 21.2098 92.7151 21.6312 92.9897 21.9673C93.2643 22.3035 93.6218 22.5545 94.0621 22.7202C94.5072 22.8859 95.0044 22.9688 95.5536 22.9688C96.1265 22.9688 96.6284 22.8835 97.0593 22.7131C97.4949 22.5379 97.8358 22.2964 98.082 21.9886C98.3282 21.6761 98.4537 21.3116 98.4585 20.8949C98.4537 20.5161 98.3424 20.2036 98.1246 19.9574C97.9068 19.7064 97.6014 19.4981 97.2085 19.3324C96.8202 19.1619 96.3656 19.0104 95.8448 18.8778L94.19 18.4517C92.9921 18.1439 92.0451 17.6776 91.3491 17.0526C90.6578 16.4228 90.3121 15.5871 90.3121 14.5455C90.3121 13.6884 90.5442 12.938 91.0082 12.294C91.4769 11.6501 92.1138 11.1506 92.9187 10.7955C93.7236 10.4356 94.6351 10.2557 95.6531 10.2557C96.6853 10.2557 97.5896 10.4356 98.3661 10.7955C99.1474 11.1506 99.7605 11.6454 100.206 12.2798C100.651 12.9096 100.88 13.634 100.895 14.4531H98.359ZM103.329 29.0909V14.0909H105.857V15.8949H106.006C106.139 15.6297 106.326 15.348 106.567 15.0497C106.809 14.7467 107.136 14.4886 107.548 14.2756C107.96 14.0578 108.485 13.9489 109.124 13.9489C109.967 13.9489 110.727 14.1643 111.404 14.5952C112.086 15.0213 112.626 15.6534 113.023 16.4915C113.426 17.3248 113.627 18.3475 113.627 19.5597C113.627 20.7576 113.431 21.7756 113.038 22.6136C112.645 23.4517 112.11 24.0909 111.433 24.5312C110.755 24.9716 109.988 25.1918 109.131 25.1918C108.506 25.1918 107.988 25.0876 107.576 24.8793C107.164 24.6709 106.833 24.42 106.582 24.1264C106.335 23.8281 106.144 23.5464 106.006 23.2812H105.9V29.0909H103.329ZM105.85 19.5455C105.85 20.2509 105.95 20.8688 106.148 21.3991C106.352 21.9295 106.643 22.3437 107.022 22.642C107.406 22.9356 107.87 23.0824 108.414 23.0824C108.982 23.0824 109.458 22.9309 109.842 22.6278C110.225 22.3201 110.514 21.901 110.708 21.3707C110.907 20.8357 111.006 20.2273 111.006 19.5455C111.006 18.8684 110.909 18.267 110.715 17.7415C110.521 17.2159 110.232 16.804 109.849 16.5057C109.465 16.2074 108.987 16.0582 108.414 16.0582C107.865 16.0582 107.398 16.2027 107.015 16.4915C106.631 16.7803 106.34 17.1851 106.141 17.706C105.947 18.2268 105.85 18.84 105.85 19.5455ZM118.968 25.2202C118.277 25.2202 117.654 25.0971 117.1 24.8509C116.551 24.5999 116.115 24.2306 115.793 23.7429C115.476 23.2552 115.317 22.6539 115.317 21.9389C115.317 21.3234 115.431 20.8144 115.658 20.4119C115.886 20.0095 116.196 19.6875 116.589 19.446C116.982 19.2045 117.424 19.0223 117.917 18.8991C118.414 18.7713 118.928 18.679 119.458 18.6222C120.097 18.5559 120.616 18.4967 121.013 18.4446C121.411 18.3878 121.7 18.3026 121.88 18.1889C122.065 18.0705 122.157 17.8883 122.157 17.642V17.5994C122.157 17.0644 121.998 16.6501 121.681 16.3565C121.364 16.063 120.907 15.9162 120.31 15.9162C119.681 15.9162 119.181 16.0535 118.812 16.3281C118.447 16.6027 118.201 16.9271 118.073 17.3011L115.673 16.9602C115.862 16.2973 116.174 15.7434 116.61 15.2983C117.046 14.8485 117.578 14.5123 118.208 14.2898C118.838 14.0625 119.534 13.9489 120.296 13.9489C120.822 13.9489 121.345 14.0104 121.866 14.1335C122.387 14.2566 122.862 14.4602 123.293 14.7443C123.724 15.0237 124.07 15.4048 124.33 15.8878C124.595 16.3707 124.728 16.9744 124.728 17.6989V25H122.256V23.5014H122.171C122.015 23.8045 121.795 24.0885 121.511 24.3537C121.231 24.6141 120.879 24.8248 120.452 24.9858C120.031 25.142 119.536 25.2202 118.968 25.2202ZM119.636 23.331C120.152 23.331 120.599 23.2292 120.978 23.0256C121.357 22.8172 121.648 22.5426 121.852 22.2017C122.06 21.8608 122.164 21.4891 122.164 21.0866V19.8011C122.084 19.8674 121.946 19.929 121.752 19.9858C121.563 20.0426 121.35 20.0923 121.113 20.1349C120.876 20.1776 120.642 20.2154 120.41 20.2486C120.178 20.2817 119.977 20.3101 119.806 20.3338C119.423 20.3859 119.079 20.4711 118.776 20.5895C118.473 20.7079 118.234 20.8736 118.059 21.0866C117.884 21.295 117.796 21.5649 117.796 21.8963C117.796 22.3698 117.969 22.7273 118.315 22.9688C118.66 23.2102 119.101 23.331 119.636 23.331ZM127.313 25V14.0909H129.806V15.9091H129.92C130.119 15.2794 130.46 14.794 130.942 14.4531C131.43 14.1075 131.987 13.9347 132.612 13.9347C132.754 13.9347 132.912 13.9418 133.087 13.956C133.267 13.9654 133.416 13.982 133.535 14.0057V16.3707C133.426 16.3329 133.253 16.2997 133.016 16.2713C132.784 16.2382 132.559 16.2216 132.342 16.2216C131.873 16.2216 131.451 16.3234 131.077 16.527C130.708 16.7259 130.417 17.0028 130.204 17.358C129.991 17.7131 129.884 18.1226 129.884 18.5866V25H127.313ZM137.587 21.5767L137.58 18.473H137.991L141.912 14.0909H144.916L140.094 19.4602H139.561L137.587 21.5767ZM135.243 25V10.4545H137.814V25H135.243ZM142.089 25L138.538 20.0355L140.271 18.2244L145.165 25H142.089Z" fill="#101828"/>
<defs>
<filter id="filter0_dd_5642_412477" x="0" y="0" width="38" height="38" filterUnits="userSpaceOnUse" color-interpolation-filters="sRGB">
<feFlood flood-opacity="0" result="BackgroundImageFix"/>
<feColorMatrix in="SourceAlpha" type="matrix" values="0 0 0 0 0 0 0 0 0 0 0 0 0 0 0 0 0 0 127 0" result="hardAlpha"/>
<feOffset dy="1"/>
<feGaussianBlur stdDeviation="1"/>
<feColorMatrix type="matrix" values="0 0 0 0 0.0627451 0 0 0 0 0.0941176 0 0 0 0 0.156863 0 0 0 0.06 0"/>
<feBlend mode="normal" in2="BackgroundImageFix" result="effect1_dropShadow_5642_412477"/>
<feColorMatrix in="SourceAlpha" type="matrix" values="0 0 0 0 0 0 0 0 0 0 0 0 0 0 0 0 0 0 127 0" result="hardAlpha"/>
<feOffset dy="1"/>
<feGaussianBlur stdDeviation="1.5"/>
<feColorMatrix type="matrix" values="0 0 0 0 0.0627451 0 0 0 0 0.0941176 0 0 0 0 0.156863 0 0 0 0.1 0"/>
<feBlend mode="normal" in2="effect1_dropShadow_5642_412477" result="effect2_dropShadow_5642_412477"/>
<feBlend mode="normal" in="SourceGraphic" in2="effect2_dropShadow_5642_412477" result="shape"/>
</filter>
<linearGradient id="paint0_linear_5642_412477" x1="19" y1="2" x2="19" y2="34" gradientUnits="userSpaceOnUse">
<stop stop-color="white"/>
<stop offset="1" stop-color="#D0D5DD"/>
</linearGradient>
</defs>
</svg>
